PathFileType	4	(X/Y/Z)	c:/Users/goper/Files/vsCode/490R/osim_files/C17/C17_SSWS_02.trc
DataRate	CameraRate	NumFrames	NumMarkers	Units                	OrigDataRate	OrigDataStartFrame	OrigNumFrames
250.00	250.00	7	36	mm	250.0	1213	2425
                Frame#	Time	LPSIS			LASIS			LTH1			LTH2			LTH3			LTH4			LLFE			LMFE			LSH1			LSH2			LSH3			LSH4			LLMAL			LMMAL			LCAL			LMTP5			LTOE			LMTP1			RPSIS			RASIS			RTH1			RTH2			RTH3			RTH4			RLFE			RMFE			RSH1			RSH2			RSH3			RSH4			RLMAL			RMMAL			RCAL			RMTP1			RTOE			RMTP5		
		X1	Y1	Z1	X2	Y2	Z2	X3	Y3	Z3	X4	Y4	Z4	X5	Y5	Z5	X6	Y6	Z6	X7	Y7	Z7	X8	Y8	Z8	X9	Y9	Z9	X10	Y10	Z10	X11	Y11	Z11	X12	Y12	Z12	X13	Y13	Z13	X14	Y14	Z14	X15	Y15	Z15	X16	Y16	Z16	X17	Y17	Z17	X18	Y18	Z18	X19	Y19	Z19	X20	Y20	Z20	X21	Y21	Z21	X22	Y22	Z22	X23	Y23	Z23	X24	Y24	Z24	X25	Y25	Z25	X26	Y26	Z26	X27	Y27	Z27	X28	Y28	Z28	X29	Y29	Z29	X30	Y30	Z30	X31	Y31	Z31	X32	Y32	Z32	X33	Y33	Z33	X34	Y34	Z34	X35	Y35	Z35	X36	Y36	Z36

1213	4.84800	-535.99005	1078.71912	317.30002	-725.07904	1023.23059	427.12015	-567.45721	720.92529	447.29544	-567.72565	677.18243	438.79883	-629.26813	715.71594	449.17636	-622.20648	672.41113	440.57632	-531.12897	513.09125	406.89664	-533.09741	518.10229	283.75970	-415.44089	300.08734	394.56006	-410.87311	255.74269	386.91150	-476.22168	280.50354	396.44528	-459.17404	240.92012	388.26865	-392.23279	112.83700	358.36169	-405.26569	123.76530	273.15942	-309.84286	83.02530	314.27521	-496.76584	41.74984	376.00305	-555.44543	58.02694	307.76288	-535.68909	42.79818	259.17523	-543.36877	1071.95886	243.94252	-723.58765	1035.81726	158.33379	-805.12659	764.10944	111.29002	-814.75757	717.67023	111.68048	-749.24115	745.91827	96.02262	-765.98938	702.86633	102.10492	-872.72876	514.20782	132.37848	-848.95673	514.54492	257.93436	-877.62408	304.65833	125.01255	-901.00372	265.19736	136.66980	-935.15240	329.29248	128.98274	-950.27655	284.86987	138.59131	-975.14581	105.97481	164.05989	-1000.30646	136.65385	249.57410	-935.07904	44.59724	218.33049	-1150.68469	134.56848	234.18521	-1147.60718	162.25638	188.43875	-1110.55920	105.08424	127.69730
1214	4.85200	-542.10754	1077.23608	317.07748	-731.15704	1021.85870	427.02246	-571.17523	720.89709	446.91788	-571.57068	676.92688	438.79633	-633.34161	715.05695	449.25961	-625.94672	671.88354	440.70068	-533.92273	512.99512	406.97839	-535.85870	518.00226	283.82617	-416.95953	300.66544	394.65875	-412.19894	256.20749	387.00952	-477.61411	280.74500	396.61145	-460.33966	241.26044	388.38062	-392.64575	113.39427	358.46106	-405.76392	124.37130	273.25806	-310.18182	83.92165	314.38919	-496.77786	41.73398	376.06421	-555.50531	57.97506	307.77838	-535.80774	42.87331	259.28351	-549.48718	1070.51428	243.74042	-729.90222	1034.38794	158.14088	-811.19977	762.35059	111.64455	-820.92566	715.91669	112.20943	-755.31915	744.05090	96.55025	-772.13403	701.08344	102.75253	-880.13446	513.48889	133.59248	-855.47778	513.20636	258.90262	-888.92981	304.39328	125.87373	-913.10010	265.32639	137.51743	-946.26019	329.76770	130.04300	-961.95404	285.63193	139.46613	-990.82959	107.19856	165.15376	-1014.63196	138.05780	250.48526	-951.67163	44.75627	218.97534	-1165.15063	139.90639	235.94254	-1161.58557	167.58022	190.23819	-1126.23706	109.66352	129.15562
1215	4.85600	-548.20148	1075.71167	316.79663	-737.22729	1020.47064	427.02969	-575.23633	720.62512	446.93539	-575.44434	676.59546	438.79532	-637.55927	714.39514	449.26697	-629.90613	671.21753	440.77988	-536.84436	513.00543	407.07703	-538.75885	517.87439	283.89542	-418.61642	301.19461	394.78033	-413.66580	256.71646	387.10217	-479.04364	280.91733	396.77832	-461.71835	241.62628	388.51328	-393.20773	114.11353	358.56424	-406.37622	124.95947	273.34293	-310.51172	84.92503	314.43637	-496.82755	41.71261	376.09094	-555.54840	57.96248	307.77985	-535.79846	42.54215	259.46854	-555.48779	1069.07190	243.59688	-736.36237	1032.80249	158.07085	-817.32098	760.63861	111.93942	-827.10693	714.20331	112.77352	-761.51715	742.16083	97.09315	-778.33167	699.23505	103.41035	-887.50659	512.78027	134.68562	-861.88879	511.91443	260.73242	-900.05042	304.16632	126.67926	-924.89801	265.58685	138.36983	-957.19061	330.26599	131.04210	-973.37158	286.36215	140.34308	-1005.72693	108.60063	165.93024	-1028.59265	139.85727	251.60382	-968.00262	45.03022	219.61987	-1179.07727	145.11209	237.79770	-1175.15479	172.70918	192.14894	-1141.31201	114.10199	130.82198
1216	4.86000	-554.39838	1074.17029	316.53116	-743.35205	1019.11676	427.04395	-579.91595	720.06140	447.29111	-579.36658	676.34015	438.81284	-641.69238	713.90015	449.57419	-633.72028	670.60754	441.02408	-539.92993	512.81104	407.19891	-541.87231	517.72028	284.01541	-420.36600	301.80634	394.85446	-415.18320	257.16644	387.13702	-480.67682	281.21188	396.91040	-462.88367	241.99901	388.62384	-393.65060	114.79041	358.66748	-406.98294	125.57885	273.43677	-310.87500	86.11311	314.46317	-496.86249	41.72672	376.11325	-555.61951	57.95234	307.79044	-535.86932	42.55200	259.48969	-562.62628	1067.06702	242.58452	-742.89337	1031.19336	157.92830	-823.55298	758.96167	112.22314	-833.38141	712.53479	113.25713	-767.65869	740.38519	97.54810	-784.65283	697.43445	104.02201	-895.12000	512.07831	135.87346	-868.49988	510.46442	261.55731	-911.07935	303.95120	127.49112	-936.51392	265.82645	139.21782	-967.76495	330.83878	132.00906	-984.53369	287.05322	141.22664	-1020.20050	110.04833	167.00075	-1042.15833	141.59070	252.94464	-983.83295	45.45037	220.42310	-1192.56006	150.08751	239.69218	-1188.16956	177.71016	194.06908	-1155.99805	118.35941	132.54907
1217	4.86400	-560.46320	1072.69995	316.28735	-749.37091	1017.72137	427.07440	-583.82599	719.95392	446.97672	-583.52484	675.99725	438.79639	-645.85321	713.16803	449.70474	-637.81757	670.01245	441.07864	-543.08167	512.66205	407.30484	-545.11987	517.51550	284.12344	-421.98914	302.45798	394.99576	-416.66821	257.75461	387.24966	-482.36029	281.39868	397.06088	-464.38852	242.27777	388.72775	-394.17255	115.58151	358.71103	-407.60306	126.30161	273.54199	-311.20145	87.17259	314.57358	-496.89594	41.73075	376.13492	-555.67694	57.95592	307.80417	-535.94104	42.56355	259.51047	-568.91821	1065.50867	242.29799	-749.34918	1029.52405	157.82045	-829.88098	757.34503	112.52585	-839.76294	710.91943	113.73642	-774.00415	738.62091	98.01181	-791.04315	695.73639	104.66286	-902.68903	511.42297	136.86620	-875.10577	509.00089	262.33704	-921.86292	303.92249	128.38631	-947.92499	266.11783	140.08504	-978.37323	331.46533	133.18628	-995.44507	287.69791	142.12126	-1034.49927	111.47379	168.25623	-1055.35620	143.33534	254.25792	-999.14703	45.90580	221.31514	-1205.64697	154.96770	241.81177	-1200.88123	182.35977	196.14201	-1170.29736	122.45332	134.47563
1218	4.86800	-566.62732	1071.15527	316.01367	-754.92120	1016.55597	427.24219	-588.26093	719.61652	447.06549	-587.61945	675.68500	438.89288	-650.23730	712.42883	449.81302	-642.03046	669.29327	441.26886	-546.38013	512.52142	407.44034	-548.56677	517.27631	284.24713	-424.48123	302.33078	394.83966	-418.48392	258.25027	387.25888	-483.87943	281.56201	397.23309	-465.75931	242.69865	388.85046	-394.82144	116.23821	358.80939	-408.26035	126.99671	273.69827	-311.60526	88.41788	314.63779	-496.93436	41.69573	376.13821	-555.76349	57.93742	307.82193	-536.06641	42.59383	259.54654	-575.25836	1063.88928	241.94601	-755.76373	1027.83862	157.74258	-836.26843	755.79596	112.79828	-846.35712	709.37598	114.22656	-780.41357	736.87146	98.44582	-797.54395	694.00537	105.22321	-910.49164	510.84979	137.80496	-881.86230	507.45880	263.05780	-932.47009	303.93881	129.28247	-959.11774	266.44788	140.96735	-988.70898	332.07068	134.32924	-1006.11053	288.28885	143.03142	-1048.23291	112.77139	169.64359	-1068.10913	144.91130	255.65303	-1013.10065	47.20545	222.67795	-1218.26245	159.39342	244.00334	-1213.17175	186.72517	198.37318	-1184.01746	126.33227	136.43552
1219	4.87200	-572.73492	1069.61548	315.75107	-761.45142	1014.93195	427.23819	-592.73871	719.24475	447.13232	-591.94244	675.27142	439.00223	-654.89502	711.66449	450.00656	-646.33838	668.64270	441.50684	-549.89618	512.21594	407.57016	-552.11609	517.04449	284.42178	-426.09048	303.19138	395.01147	-420.22702	258.75558	387.33194	-485.89044	281.68124	397.29337	-467.34677	242.92897	388.93268	-395.41678	117.01151	358.95609	-408.90411	127.71838	273.74048	-312.06204	89.63822	314.70279	-497.00192	41.69498	376.13498	-555.85938	57.92171	307.82437	-536.17010	42.64163	259.57922	-581.48553	1062.27454	241.66370	-762.13727	1026.08777	157.72668	-842.82648	754.34564	113.08704	-852.97491	707.92041	114.67087	-787.04822	735.20349	97.30697	-804.11670	692.48718	105.76733	-918.25623	510.34668	138.58815	-888.80884	506.12292	263.70026	-944.51471	302.33054	130.10074	-970.08704	266.77042	141.89893	-999.14618	332.39590	135.53600	-1016.53455	288.81888	143.96152	-1061.84546	113.88731	171.33347	-1080.43860	146.43069	257.11597	-1027.50317	47.42510	224.03151	-1230.27844	163.37576	246.24155	-1225.00476	190.68980	200.66530	-1197.21082	129.84593	138.49010
